# xmcd
#
# Track frame offsets:
#	150
#	17508
#	30085
#	46889
#	63113
#	82529
#	104047
#	118933
#	136725
#	150686
#	184329
#
# Disc length: 2748 seconds
#
# Revision: 0
# Processed by: cddbd v1.5.2PL0 Copyright (c) Steve Scherf et al.
# Submitted via: EasyCDDAExtractor 10.0.5.1
#
DISCID=7c0aba0b
DTITLE=Tuzkerek - Bibor Hold
DYEAR=2003
DGENRE=Blues
TTITLE0=Bibor Hold
TTITLE1=Beestel a vizbe
TTITLE2=Nem enged el Dorog
TTITLE3=16 tonna
TTITLE4=Csontvaz blues
TTITLE5=Macska-eger boogie
TTITLE6=Csodalatos utazas
TTITLE7=Lany akire szerelemmel...
TTITLE8=Fuben allva
TTITLE9=Vonat blues
TTITLE10=Befuvezve
EXTD=
EXTT0=
EXTT1=
EXTT2=
EXTT3=
EXTT4=
EXTT5=
EXTT6=
EXTT7=
EXTT8=
EXTT9=
EXTT10=
PLAYORDER=
